<svg width="145" height="25" viewBox="0 0 145 25" fill="none" xmlns="http://www.w3.org/2000/svg">
<g clip-path="url(#clip0_3306_13)">
<path d="M134.659 18.9473V6.26235H135.943V17.0989L143.076 6.26235H144.556V18.947H143.254V8.19998L136.121 18.947H134.659V18.9473ZM120.993 19.0728V17.7809C121.266 17.7688 121.51 17.709 121.724 17.6015C121.938 17.4819 122.122 17.3264 122.277 17.1352C122.443 16.9319 122.568 16.7044 122.651 16.4535C122.77 16.0947 122.859 15.6999 122.919 15.2695C122.978 14.8387 123.02 14.4025 123.044 13.9596C123.067 13.505 123.079 13.0805 123.079 12.6857L123.186 6.26272H131.478V18.9473H130.194V7.42874H124.488L124.381 12.0037C124.369 12.6975 124.351 13.3972 124.327 14.1027C124.303 14.7965 124.238 15.4544 124.131 16.0763C124.036 16.6865 123.852 17.2005 123.578 17.6191C123.34 18.0616 123.013 18.4087 122.598 18.6597C122.182 18.8989 121.647 19.0365 120.993 19.0724V19.0728ZM115.101 19.0908C113.793 19.0908 112.711 18.8156 111.856 18.2656C111 17.7035 110.358 16.9319 109.93 15.9512C109.514 14.9705 109.306 13.858 109.306 12.6142C109.306 11.3704 109.52 10.2638 109.948 9.29518C110.376 8.31445 111.018 7.54285 111.873 6.98075C112.741 6.40655 113.823 6.11963 115.119 6.11963C115.963 6.11963 116.712 6.25135 117.366 6.51442C118.019 6.76575 118.56 7.13632 118.988 7.62687C119.428 8.10531 119.737 8.68539 119.916 9.3671H118.614C118.376 8.70924 117.948 8.20108 117.33 7.84224C116.723 7.4713 115.986 7.28602 115.119 7.28602C114.061 7.28602 113.199 7.53111 112.533 8.02166C111.879 8.51221 111.392 9.15796 111.071 9.95928C110.762 10.7606 110.607 11.628 110.607 12.5606C110.607 13.5414 110.768 14.4384 111.089 15.2519C111.41 16.0653 111.903 16.7169 112.569 17.2075C113.235 17.6859 114.084 17.9251 115.119 17.9251C115.69 17.9251 116.218 17.8474 116.706 17.6918C117.193 17.5245 117.615 17.2853 117.972 16.9741C118.329 16.663 118.584 16.2865 118.739 15.8437H120.147C119.945 16.5254 119.607 17.1117 119.131 17.6019C118.656 18.0803 118.073 18.4513 117.384 18.7143C116.706 18.9657 115.945 19.0912 115.101 19.0912L115.101 19.0908ZM105.543 18.9473V6.26235H106.827V18.947H105.543V18.9473ZM96.4135 17.7813H98.5533C99.0051 17.7813 99.4449 17.7516 99.873 17.6918C100.313 17.6199 100.705 17.5003 101.05 17.333C101.406 17.1535 101.686 16.8963 101.888 16.5614C102.102 16.2146 102.209 15.76 102.209 15.1979C102.209 14.6358 102.108 14.1934 101.906 13.8701C101.704 13.5472 101.43 13.308 101.085 13.1524C100.741 12.9969 100.354 12.8952 99.9266 12.8476C99.5105 12.7999 99.0824 12.7756 98.6426 12.7756H96.4139V17.7813H96.4135ZM95.1295 18.9473V6.26235H96.4135V11.6089H98.6601C99.2782 11.6089 99.8726 11.6566 100.443 11.7523C101.026 11.836 101.543 11.9974 101.995 12.2367C102.458 12.4759 102.827 12.8226 103.1 13.2772C103.374 13.7318 103.51 14.3357 103.51 15.0893C103.51 15.843 103.386 16.4289 103.136 16.9195C102.898 17.41 102.565 17.8044 102.137 18.1035C101.709 18.4025 101.204 18.6179 100.622 18.7492C100.051 18.8809 99.4274 18.9466 98.7498 18.9466H95.1299L95.1295 18.9473ZM79.9449 18.9473V6.26235H81.8528L86.0077 13.6184L90.0911 6.26235H91.9632V18.947H90.6793V7.60816L86.275 15.5744H85.6686L81.2285 7.60816V18.9473H79.9446H79.9449ZM50.9314 19.0908C50.3608 19.0908 49.8021 19.0369 49.2551 18.9294C48.7081 18.8097 48.2031 18.6245 47.7396 18.3731C47.2878 18.1218 46.9195 17.7931 46.634 17.3865C46.3488 16.98 46.188 16.4836 46.1526 15.8973H47.4545C47.5019 16.2799 47.6328 16.6028 47.8468 16.8663C48.0609 17.1176 48.3344 17.3267 48.6669 17.494C48.9999 17.6496 49.3565 17.7633 49.7368 17.8349C50.1292 17.8947 50.5037 17.9244 50.8603 17.9244C51.217 17.9244 51.5915 17.8947 51.9838 17.8349C52.3762 17.7751 52.7445 17.6613 53.0895 17.494C53.4341 17.3146 53.7138 17.0633 53.9275 16.7404C54.1415 16.4054 54.2484 15.975 54.2484 15.4485C54.2484 14.922 54.1594 14.5393 53.9811 14.2286C53.8148 13.9174 53.5708 13.6782 53.2499 13.5109C52.9407 13.3315 52.5782 13.2178 52.1622 13.1701C51.7581 13.1103 51.3242 13.0805 50.8603 13.0805H49.2734V11.9145H50.2539C50.682 11.9145 51.0981 11.8727 51.5021 11.789C51.9182 11.7054 52.2927 11.5737 52.6256 11.3942C52.9702 11.2027 53.2437 10.9576 53.4457 10.6586C53.6478 10.3596 53.7488 9.99487 53.7488 9.56413C53.7488 8.95396 53.6004 8.48763 53.3032 8.16475C53.018 7.84188 52.6552 7.6144 52.2154 7.48305C51.7756 7.35133 51.318 7.28565 50.8425 7.28565C50.367 7.28565 49.9151 7.35133 49.4517 7.48305C48.9999 7.61476 48.6195 7.8239 48.3103 8.11118C48.0011 8.3981 47.829 8.77492 47.7932 9.24162H46.4914C46.5034 8.72722 46.6161 8.2906 46.8302 7.93177C47.0442 7.57294 47.3177 7.27978 47.6503 7.05267C47.9949 6.81345 48.3635 6.62816 48.7559 6.49644C49.1483 6.35298 49.5344 6.25722 49.9148 6.20952C50.3072 6.14971 50.6518 6.12 50.9489 6.12C51.4719 6.12 51.9714 6.1798 52.447 6.29941C52.9225 6.40691 53.3506 6.58633 53.7309 6.83766C54.1233 7.08899 54.4321 7.42361 54.6582 7.84224C54.8839 8.24877 54.997 8.75143 54.997 9.34949C54.997 9.69621 54.9376 10.0492 54.8187 10.408C54.7118 10.7668 54.5094 11.1077 54.2123 11.4306C53.9151 11.7534 53.4811 12.0345 52.9104 12.2737C53.7663 12.4054 54.4201 12.7701 54.8719 13.3682C55.3354 13.9541 55.5673 14.648 55.5673 15.4493C55.5553 16.1071 55.4127 16.6692 55.1392 17.1359C54.8777 17.6023 54.527 17.9791 54.0872 18.2664C53.6474 18.5533 53.154 18.7628 52.607 18.8941C52.0721 19.0259 51.5134 19.0915 50.9307 19.0915L50.9314 19.0908ZM36.9243 14.9822H42.4878L39.7062 7.4647L36.9247 14.9822H36.9243ZM34.0534 18.9473L38.8322 6.26272H40.5975L45.3763 18.9473H43.9676L42.9335 16.1486H36.4962L35.462 18.9473H34.0534ZM26.6625 13.4929H29.3015C30.324 13.4929 31.1562 13.2478 31.798 12.7573C32.4398 12.2667 32.761 11.4654 32.761 10.353C32.761 9.34839 32.4875 8.61274 31.9409 8.14604C31.4059 7.6676 30.6274 7.42838 29.6049 7.42838H26.6629V13.4926L26.6625 13.4929ZM25.3786 18.9473V6.26235H29.6939C30.6092 6.26235 31.3939 6.41168 32.0477 6.71071C32.7016 7.00974 33.2008 7.4702 33.5457 8.09211C33.9024 8.70227 34.0807 9.47974 34.0807 10.4245C34.0807 11.3693 33.8728 12.1409 33.4564 12.7749C33.0524 13.4089 32.4934 13.8811 31.7801 14.1923C31.0789 14.5034 30.2704 14.6586 29.3551 14.6586H26.6625V18.9466H25.3786V18.9473ZM15.03 17.7813H17.8473C18.2991 17.7813 18.7447 17.7454 19.1849 17.6738C19.6247 17.6019 20.0112 17.4823 20.3438 17.315C20.6884 17.1356 20.9618 16.8725 21.1639 16.5254C21.3659 16.1787 21.4669 15.7358 21.4669 15.1976C21.4669 14.6593 21.3659 14.193 21.1639 13.8697C20.9618 13.5469 20.6884 13.3076 20.3438 13.1521C20.0108 12.9965 19.6305 12.9008 19.2024 12.8652C18.7863 12.8175 18.3582 12.7932 17.9184 12.7932H15.0296V17.7809L15.03 17.7813ZM13.746 18.9473V6.26235H22.2159V7.42838H15.0296V11.6089H18.1325C18.7269 11.6089 19.2976 11.6566 19.8442 11.7523C20.4028 11.8481 20.902 12.0216 21.3422 12.2726C21.782 12.5118 22.1269 12.8586 22.3763 13.3132C22.6378 13.7677 22.7687 14.3658 22.7687 15.1073C22.7687 15.8488 22.6498 16.4351 22.4121 16.9374C22.1743 17.428 21.8414 17.8224 21.4137 18.1214C20.9855 18.4084 20.4805 18.6179 19.8981 18.7492C19.3275 18.8809 18.7094 18.9466 18.0435 18.9466H13.746V18.9473ZM5.37063 17.9248C6.41682 17.9248 7.2785 17.6856 7.95603 17.2071C8.63356 16.7287 9.13278 16.0888 9.45404 15.2875C9.78697 14.474 9.95325 13.5832 9.95325 12.6142C9.95325 11.8844 9.85808 11.1968 9.66809 10.5511C9.48978 9.90535 9.21045 9.33701 8.83011 8.84683C8.44978 8.35628 7.96843 7.9736 7.38571 7.69842C6.81503 7.42324 6.14333 7.28565 5.37063 7.28565C4.33646 7.28565 3.47442 7.53074 2.78522 8.02129C2.10769 8.49974 1.59644 9.14549 1.25184 9.95891C0.918908 10.7602 0.752625 11.6456 0.752625 12.6142C0.752625 13.5828 0.918908 14.4561 1.25184 15.2695C1.58477 16.0708 2.09602 16.7169 2.78522 17.2071C3.47478 17.6856 4.33646 17.9248 5.37063 17.9248ZM5.37063 19.0908C4.06297 19.0908 2.96937 18.8097 2.08945 18.2476C1.22157 17.6856 0.56191 16.9139 0.110102 15.9332C-0.329673 14.9525 -0.549561 13.8459 -0.549561 12.6142C-0.549561 11.3825 -0.329673 10.2579 0.110102 9.27721C0.56191 8.29647 1.22157 7.52487 2.08945 6.96277C2.969 6.40068 4.06297 6.11963 5.37063 6.11963C6.67828 6.11963 7.76605 6.40068 8.63393 6.96277C9.50181 7.52487 10.1556 8.29647 10.5954 9.27721C11.0472 10.2579 11.2729 11.3704 11.2729 12.6142C11.2729 13.858 11.0472 14.9525 10.5954 15.9332C10.1556 16.9139 9.50181 17.6856 8.63393 18.2476C7.76605 18.8097 6.67828 19.0908 5.37063 19.0908Z" fill="#202020"/>
<path d="M67.3708 2.94702C62.2488 2.94702 58.0815 7.13964 58.0815 12.2935C58.0815 17.4474 62.2485 21.6401 67.3708 21.6401C72.4931 21.6401 76.66 17.4474 76.66 12.2935C76.66 7.13964 72.4931 2.94702 67.3708 2.94702ZM66.7385 20.3442L66.5685 20.3273C62.4516 19.916 59.3469 16.4623 59.3469 12.2935C59.3469 9.95673 60.3526 7.73586 62.1062 6.20073L62.2149 6.1057L62.9337 6.82887L63.0883 6.96242L64.4681 8.35079L64.494 8.33171C65.3316 7.71421 66.3264 7.38766 67.3704 7.38766C68.3543 7.38766 69.3016 7.68045 70.1101 8.23448L70.1356 8.25209L71.5311 6.84795L71.5424 6.85932L72.3972 5.9993L72.5055 6.09029C74.3412 7.63019 75.3943 9.89142 75.3943 12.2943C75.3943 16.463 72.2896 19.9167 68.1727 20.328L68.0027 20.3449V18.4425L68.138 18.4256C71.2015 18.0415 73.5116 15.4056 73.5116 12.2943C73.5116 11.0064 73.1225 9.77327 72.3866 8.7287L72.3611 8.69237L71.4513 9.6078L71.4677 9.63348C71.9771 10.4256 72.2466 11.3458 72.2466 12.2946C72.2466 14.9998 70.059 17.2009 67.3704 17.2009C64.6818 17.2009 62.4942 14.9998 62.4942 12.2946C62.4942 11.4064 62.7327 10.5364 63.1834 9.77841L63.1984 9.75309L62.2831 8.8318L62.2579 8.86996C61.5852 9.88408 61.2293 11.0681 61.2293 12.2946C61.2293 15.4056 63.5393 18.0415 66.6028 18.426L66.7381 18.4429V20.3453L66.7385 20.3442ZM67.3708 9.28162C65.7204 9.28162 64.3773 10.6329 64.3773 12.2935C64.3773 13.5729 65.1821 14.7155 66.3796 15.1367L66.4292 15.1543V13.7527L66.4125 13.7417C65.93 13.4177 65.642 12.8766 65.642 12.2943C65.642 11.3352 66.4172 10.5551 67.3704 10.5551C68.3236 10.5551 69.0989 11.3352 69.0989 12.2943C69.0989 12.8769 68.8108 13.4181 68.3284 13.7417L68.3116 13.7527V15.1543L68.3612 15.1367C69.5587 14.7155 70.3635 13.5729 70.3635 12.2935C70.3635 10.6326 69.0209 9.28162 67.3701 9.28162H67.3708ZM64.6472 6.75292L63.2593 5.35611L63.4365 5.25558C64.6311 4.57828 65.9917 4.22018 67.3711 4.22018C68.7506 4.22018 69.9959 4.54856 71.1508 5.17009L71.3342 5.26879L69.9354 6.6766L69.8388 6.63404C69.0599 6.28952 68.2295 6.11487 67.3711 6.11487C66.4529 6.11487 65.5694 6.31373 64.7456 6.70632L64.6472 6.75329V6.75292Z" fill="#E56F32"/>
</g>
<defs>
<clipPath id="clip0_3306_13">
<rect width="145" height="25" fill="white"/>
</clipPath>
</defs>
</svg>
